<svg version="1.1" id="Layer_1" xmlns="http://www.w3.org/2000/svg" xmlns:xlink="http://www.w3.org/1999/xlink" x="0px" y="0px"
	 width="100%" viewBox="0 0 1024 1024" enable-background="new 0 0 1024 1024" xml:space="preserve">
<path fill="#000000" opacity="1.000000" stroke="none" 
	d="
M1.000000,993.468628 
	C8.218564,993.978455 8.242113,993.978455 8.245322,1001.154358 
	C8.248739,1008.794983 8.201502,1016.435547 8.088190,1024.538086 
	C5.693171,1025.000000 3.386341,1025.000000 1.000000,1025.000000 
	C1.000000,1014.645874 1.000000,1004.291626 1.000000,993.468628 
z"/>
<path fill="#000000" opacity="1.000000" stroke="none" 
	d="
M542.898438,837.286377 
	C528.110962,837.188293 513.862610,838.201538 499.496765,837.605347 
	C459.475159,835.944275 421.479736,826.921875 385.514618,809.344666 
	C346.017761,790.041382 312.176758,763.514038 284.372131,729.442993 
	C265.562347,706.393921 251.226471,680.649475 241.123749,652.758179 
	C233.250137,631.020935 227.835968,608.590332 225.511276,585.431580 
	C223.843643,568.818359 223.694824,552.214600 223.632050,535.569946 
	C223.533432,509.423401 222.754852,483.268127 223.212769,457.133148 
	C224.112091,405.804230 223.102066,354.474854 223.803970,303.151062 
	C224.222107,272.575989 234.763901,246.487640 259.124359,227.060715 
	C290.486908,202.049789 334.449341,206.937134 362.122162,232.626465 
	C380.620605,249.798981 389.191589,271.020264 389.487183,296.213348 
	C389.725647,316.540314 390.141052,336.869263 389.831696,357.190887 
	C389.466675,381.168488 389.893250,405.142761 389.634125,429.123169 
	C389.187805,470.425568 389.743347,511.746796 390.435150,553.050781 
	C390.918335,581.900818 403.812469,605.710205 423.524811,625.808289 
	C446.797943,649.536682 475.283081,663.802734 508.380707,667.364075 
	C531.254395,669.825378 553.201721,664.438538 573.622253,654.175659 
	C603.609436,639.104858 625.077393,616.103210 635.595764,583.764709 
	C639.808044,570.814209 640.529541,557.254272 640.568909,543.816528 
	C640.800354,464.817200 640.720886,385.816956 640.737854,306.817017 
	C640.741028,292.122681 641.059570,277.374542 646.557556,263.532379 
	C657.941101,234.872040 677.760864,216.282120 709.295654,211.511948 
	C750.680603,205.251785 793.386230,234.653625 801.174805,278.891998 
	C803.030273,289.431061 802.850281,300.158081 802.878418,310.765717 
	C803.083618,388.096375 803.099121,465.428650 802.779114,542.758789 
	C802.708923,559.723267 803.070496,576.758301 801.270203,593.674805 
	C798.153564,622.958435 790.902466,651.125854 778.346130,677.891968 
	C759.584351,717.886169 732.219299,751.059387 697.810730,778.317932 
	C661.229126,807.298035 619.547180,825.346497 573.557129,833.518921 
	C563.544250,835.298218 553.483826,836.370483 542.898438,837.286377 
M279.380737,427.499695 
	C279.368774,471.996490 279.414764,516.493408 279.312347,560.989990 
	C279.278168,575.834717 280.325867,590.518738 283.309387,605.101929 
	C288.725952,631.578003 297.097473,657.023743 311.880676,679.726562 
	C329.241943,706.388489 351.337341,728.381775 378.510101,745.545410 
	C414.913635,768.539673 454.234070,782.048584 497.102356,784.446777 
	C518.172363,785.625366 539.317139,784.975098 560.331360,781.815735 
	C598.165588,776.127686 632.492920,761.747864 663.027161,739.114502 
	C691.249329,718.194946 713.434204,691.885132 728.011292,659.488586 
	C741.240356,630.087830 748.227173,599.340942 748.653381,567.178467 
	C749.035339,538.352661 748.848267,509.519470 748.937988,480.689575 
	C749.131287,418.550690 748.385376,356.408234 749.655762,294.273285 
	C749.854431,284.553864 746.392700,276.409485 739.047241,269.936554 
	C723.110291,255.892838 699.787292,262.165710 694.835938,281.868927 
	C693.544128,287.009155 695.048462,292.143219 695.021545,297.291077 
	C694.571350,383.274078 695.902954,469.260376 694.430908,555.243347 
	C694.148499,571.736084 691.351013,587.765808 685.924622,603.157104 
	C671.147034,645.071838 643.312988,676.103943 604.564575,697.329773 
	C558.010437,722.831482 509.383728,727.738831 459.077209,710.001770 
	C429.505310,699.575256 404.220367,682.317261 382.559418,659.657959 
	C359.740173,635.787048 344.700714,607.991760 339.439697,575.186279 
	C336.215332,555.080383 335.771515,534.785400 335.711365,514.497131 
	C335.571533,467.334045 335.665558,420.170288 335.671661,373.006805 
	C335.675323,344.842255 335.852386,316.676483 335.640015,288.513611 
	C335.520599,272.683105 319.054077,259.797211 303.519745,262.879791 
	C288.114349,265.936737 279.355347,276.584503 279.347595,292.509277 
	C279.325867,337.172760 279.365326,381.836212 279.380737,427.499695 
z"/>
</svg>