<?xml version="1.0" standalone="no"?>
<!DOCTYPE svg PUBLIC "-//W3C//DTD SVG 20010904//EN"
 "http://www.w3.org/TR/2001/REC-SVG-20010904/DTD/svg10.dtd">
<svg version="1.0" xmlns="http://www.w3.org/2000/svg"
 width="1280.000000pt" height="880.000000pt" viewBox="0 0 1280.000000 880.000000"
 preserveAspectRatio="xMidYMid meet">
<metadata>
Created by potrace 1.15, written by Peter Selinger 2001-2017
</metadata>
<g transform="translate(0.000000,880.000000) scale(0.100000,-0.100000)"
fill="#3f51b5" stroke="none">
<path d="M12350 8789 c-953 -56 -1859 -396 -2790 -1048 -470 -329 -1027 -808
-1414 -1216 -547 -577 -1037 -1190 -1284 -1606 -85 -142 -163 -232 -185 -210
-15 15 9 63 60 121 102 115 98 186 -15 272 l-54 40 7 47 c26 188 322 851 560
1256 113 193 297 473 394 599 96 125 228 260 306 313 33 22 112 65 176 96 130
62 173 101 184 166 9 54 -1 81 -29 81 -29 0 -169 -84 -283 -168 -112 -84 -303
-275 -417 -417 -310 -387 -628 -976 -931 -1722 -49 -121 -84 -194 -94 -197 -9
-3 -40 -6 -70 -8 l-55 -3 -83 195 c-217 511 -484 986 -751 1340 -313 413 -666
735 -914 830 -128 50 -164 30 -118 -65 28 -58 101 -106 219 -145 50 -16 105
-37 123 -46 157 -80 418 -340 636 -635 303 -411 609 -983 763 -1431 l34 -96
-62 -65 c-34 -35 -65 -76 -69 -91 -10 -40 13 -84 87 -162 69 -73 86 -103 72
-129 -7 -12 -17 -4 -48 37 -828 1093 -1816 2020 -2905 2724 -619 400 -1205
666 -1785 809 -407 100 -724 141 -1190 152 l-261 6 -43 -49 c-79 -90 -109
-177 -118 -339 -24 -467 294 -1217 726 -1717 285 -328 281 -322 281 -467 0
-55 5 -124 11 -153 6 -29 57 -147 114 -263 119 -242 143 -312 179 -523 55
-313 89 -404 176 -470 l45 -35 6 -136 c5 -103 13 -158 33 -226 67 -230 225
-457 385 -551 17 -10 31 -22 31 -26 0 -4 -15 -25 -34 -45 -76 -85 -102 -172
-116 -397 -30 -464 -32 -484 -80 -593 l-22 -52 25 -53 c16 -33 30 -88 37 -143
23 -184 38 -234 86 -285 l24 -26 -21 -53 c-14 -39 -20 -77 -20 -141 0 -103 12
-160 56 -256 38 -83 90 -144 161 -190 49 -31 52 -36 58 -86 16 -115 101 -266
213 -375 60 -58 87 -75 234 -142 25 -12 94 -66 153 -121 87 -81 116 -102 158
-115 28 -8 64 -15 79 -15 47 0 112 -29 184 -84 119 -91 113 -88 234 -90 l110
-1 173 -87 c228 -115 285 -127 410 -88 75 24 156 25 293 5 55 -8 143 -14 195
-14 109 -1 144 11 247 85 79 57 129 79 219 98 95 19 147 47 214 115 99 99 280
398 474 781 212 419 375 831 602 1520 26 80 49 138 50 130 2 -8 8 -134 14
-280 25 -604 73 -855 195 -1004 l24 -30 20 25 c56 68 110 222 130 369 5 41 13
265 17 498 3 232 9 422 13 422 3 0 24 -51 45 -113 117 -338 245 -632 477
-1097 357 -717 578 -1039 806 -1176 53 -31 79 -39 218 -64 43 -7 86 -26 150
-65 50 -29 104 -59 120 -66 47 -18 157 -13 319 15 123 22 181 26 335 26 210 0
202 -1 356 89 152 90 219 120 297 131 40 6 87 13 105 16 18 3 71 33 120 68
112 80 135 92 221 111 93 21 122 42 212 153 85 104 114 127 175 136 66 10 123
54 207 157 98 120 123 176 137 303 13 114 19 127 65 155 71 44 135 143 172
267 27 89 25 259 -5 343 l-22 64 33 34 33 34 6 172 c6 142 10 182 29 231 27
75 24 94 -44 250 -67 152 -72 178 -91 416 -20 269 -46 353 -126 418 -16 13
-29 27 -29 31 0 3 15 15 33 26 55 32 158 137 203 207 96 146 142 325 151 578
l6 155 49 44 c88 78 107 142 133 441 24 281 44 357 153 595 95 209 116 297
103 434 l-7 73 69 107 c273 418 432 685 533 897 178 373 264 728 250 1034 -8
191 -36 293 -105 388 l-31 42 -88 -1 c-48 -1 -148 -6 -222 -10z m-442 -119
c53 -24 61 -44 32 -75 -39 -41 -123 -67 -237 -73 -101 -5 -103 -4 -103 17 0
108 185 187 308 131z m717 -50 c17 -7 25 -16 23 -28 -3 -13 -18 -19 -73 -24
-39 -5 -81 -5 -93 -3 -21 5 -22 8 -10 22 30 37 102 52 153 33z m-397 -134 c39
-20 72 -70 72 -109 0 -44 -55 -93 -113 -102 -109 -17 -227 48 -213 117 22 109
141 153 254 94z m-11118 -187 c47 -25 93 -83 88 -108 -7 -35 -318 -7 -374 33
-28 21 -5 62 49 87 60 28 176 22 237 -12z m10567 20 c101 -13 195 -56 223
-101 60 -99 -16 -197 -178 -229 -155 -30 -441 19 -554 94 -69 47 -39 122 71
176 122 60 278 82 438 60z m947 -60 c52 -41 18 -82 -78 -95 -63 -9 -96 1 -96
29 0 69 115 113 174 66z m-12355 -52 c68 -24 43 -47 -51 -47 -25 0 -53 3 -62
6 -16 6 -22 35 -9 47 10 11 85 7 122 -6z m10759 -24 c17 -13 28 -31 30 -51 5
-45 -26 -62 -110 -62 -59 0 -69 3 -83 23 -22 35 -29 81 -13 94 35 29 135 26
176 -4z m-458 -12 c0 -10 -9 -30 -20 -44 -25 -31 -130 -85 -184 -94 l-39 -6
19 32 c48 83 224 171 224 112z m-9847 -40 c75 -18 114 -86 87 -151 -17 -41
-59 -69 -124 -82 -46 -10 -60 -9 -100 6 -60 23 -80 53 -73 108 7 49 46 93 103
113 46 17 57 17 107 6z m9996 -78 c23 -6 23 -9 19 -87 -7 -122 -60 -206 -163
-256 -44 -21 -166 -41 -207 -33 -23 4 -24 7 -17 51 34 213 208 368 368 325z
m1578 -14 c45 -17 73 -49 73 -84 0 -75 -89 -145 -185 -145 -61 0 -149 24 -187
52 -62 44 -17 135 84 171 51 18 175 22 215 6z m-10742 -80 c103 -28 136 -64
111 -122 -29 -71 -150 -148 -286 -183 -48 -12 -95 -15 -186 -12 -112 4 -126 6
-187 37 -71 34 -111 76 -121 127 -17 80 108 140 344 165 91 9 270 3 325 -12z
m8655 16 c0 -3 -11 -27 -24 -53 -49 -97 -169 -178 -281 -189 l-56 -6 11 29
c29 75 81 129 168 173 62 32 182 62 182 46z m-7863 -80 c72 -26 123 -70 123
-106 0 -18 -4 -20 -32 -14 -107 23 -188 78 -188 126 0 25 15 24 97 -6z m-397
0 c71 -37 7 -125 -91 -125 -58 0 -99 29 -99 70 0 44 40 70 107 70 30 0 67 -7
83 -15z m9660 1 c114 -21 189 -53 238 -102 27 -26 42 -50 40 -61 -4 -23 -97
-79 -168 -101 -88 -27 -307 -22 -431 11 -145 38 -253 98 -284 156 l-14 29 52
20 c73 29 114 40 177 51 85 14 306 12 390 -3z m-11271 -69 c39 -79 8 -90 -136
-51 -29 8 -53 18 -53 22 0 13 53 60 80 71 14 6 39 9 55 8 25 -2 34 -10 54 -50z
m1948 -71 c68 -32 138 -103 170 -172 27 -60 42 -167 25 -178 -16 -10 -149 12
-221 36 -76 24 -144 82 -162 135 -6 19 -9 62 -7 96 4 50 9 64 32 84 36 31 95
30 163 -1z m10161 -32 c33 -23 30 -83 -5 -125 -49 -58 -123 -74 -180 -39 -42
25 -51 60 -26 102 39 66 156 101 211 62z m-9725 -9 c134 -35 248 -116 272
-194 l7 -24 -66 7 c-88 9 -163 38 -216 83 -39 34 -100 116 -100 135 0 12 40
10 103 -7z m8188 -34 c11 -11 -10 -66 -41 -103 -72 -86 -246 -131 -370 -95
-30 9 -64 22 -74 30 -18 13 -17 16 19 56 59 65 149 105 267 120 65 8 188 3
199 -8z m-10146 -30 c46 -20 105 -83 105 -112 0 -12 -17 -30 -47 -50 -141 -89
-316 -76 -352 26 -12 35 -11 45 2 77 33 79 177 108 292 59z m970 -92 c44 -6
84 -14 88 -18 16 -16 -7 -66 -50 -108 -88 -85 -248 -139 -443 -150 -103 -5
-280 7 -346 23 -30 8 -32 42 -5 99 44 96 139 148 306 166 84 8 339 2 450 -12z
m8088 5 c-9 -24 -206 -197 -291 -256 -42 -28 -121 -75 -177 -103 -100 -51
-301 -123 -312 -112 -12 12 47 94 114 158 137 133 342 245 553 304 104 29 121
30 113 9z m2340 -122 l48 -21 -3 -78 -3 -78 -55 -29 c-40 -22 -69 -30 -107
-30 -46 -1 -57 3 -84 31 -58 58 -49 173 19 216 36 23 120 18 185 -11z m-791 8
c105 -15 194 -49 238 -89 l38 -36 -14 -65 c-24 -113 -100 -193 -220 -230 -197
-61 -420 29 -464 186 -46 164 151 273 422 234z m-9150 -54 c82 -18 122 -38
171 -84 44 -43 46 -55 10 -72 -140 -64 -294 -55 -399 25 -58 44 -86 128 -46
138 39 10 201 6 264 -7z m8268 -21 c25 -8 56 -25 70 -36 l25 -19 -40 -36 c-85
-76 -221 -124 -350 -124 -88 0 -138 11 -166 36 -23 20 -10 62 33 105 88 87
292 123 428 74z m-7275 -51 c123 -31 248 -85 355 -153 91 -57 270 -206 270
-224 0 -16 -115 -1 -215 28 -115 33 -289 119 -387 193 -97 73 -208 170 -208
183 0 13 69 3 185 -27z m-2648 1 c44 -26 73 -68 73 -104 0 -50 -93 -85 -164
-61 -79 26 -112 115 -61 165 33 34 93 34 152 0z m1268 -215 c64 -31 95 -80 95
-150 -1 -155 -139 -260 -345 -260 -189 0 -333 91 -351 221 -10 71 14 115 78
143 162 72 423 94 523 46z m890 -4 c68 -31 118 -74 136 -119 16 -39 1 -51 -88
-67 -76 -15 -181 -9 -273 15 -72 19 -220 83 -220 96 0 14 53 58 90 76 58 27
90 32 195 29 84 -2 110 -7 160 -30z m9012 22 c18 -24 22 -60 11 -119 l-10 -59
-58 0 c-56 0 -58 1 -69 31 -17 48 -13 83 10 113 33 42 96 60 116 34z m-10837
-50 c51 -26 90 -78 90 -119 0 -34 -43 -87 -87 -105 -42 -18 -135 -18 -176 0
-77 33 -106 106 -65 166 52 77 152 101 238 58z m8994 -68 c14 -5 26 -13 26
-18 0 -5 -27 -42 -60 -83 -100 -122 -216 -376 -260 -569 -7 -30 -18 -65 -25
-76 -8 -12 -58 -49 -113 -82 -316 -194 -575 -478 -651 -714 -7 -21 -29 -51
-49 -68 -20 -17 -235 -130 -477 -252 -453 -229 -483 -247 -875 -519 -205 -141
-378 -217 -542 -234 l-67 -7 5 53 c15 143 85 317 189 469 97 143 152 206 485
561 80 85 201 219 270 298 69 80 188 217 264 305 160 184 446 474 556 563 283
228 548 340 878 372 124 12 416 13 446 1z m639 -15 c164 -35 266 -140 303
-314 51 -242 -39 -459 -228 -549 -112 -54 -277 -66 -433 -32 -116 26 -498 130
-507 139 -10 9 58 340 86 413 32 86 63 133 120 186 133 123 457 200 659 157z
m1561 -67 c5 -19 6 -48 2 -63 -17 -66 -122 -121 -153 -80 -18 26 -16 91 4 126
17 28 46 44 93 52 39 6 44 3 54 -35z m-8559 -118 c466 -52 733 -214 1365 -825
118 -114 334 -319 480 -455 326 -304 603 -585 693 -705 106 -140 160 -263 183
-414 l6 -44 -89 7 c-92 7 -216 37 -311 75 -78 31 -136 62 -372 196 -431 245
-708 379 -960 465 -291 99 -323 122 -407 296 -110 229 -206 319 -592 549
l-184 110 -22 80 c-51 188 -161 389 -309 569 -46 56 -54 71 -42 78 40 23 413
34 561 18z m7884 -21 c91 -51 128 -171 83 -272 -65 -147 -327 -172 -397 -37
-56 108 -1 270 109 322 55 25 148 20 205 -13z m-10154 -31 c19 -47 28 -103 20
-127 -5 -18 -14 -21 -65 -21 l-59 0 -20 55 c-38 100 -26 124 62 125 45 0 49
-2 62 -32z m1503 -24 c201 -40 333 -145 396 -314 30 -81 120 -389 115 -394 -5
-5 -237 -86 -389 -136 -63 -21 -154 -44 -202 -50 -260 -35 -496 76 -591 277
-30 65 -32 74 -31 183 0 95 4 125 23 173 56 141 170 226 356 263 86 17 233 17
323 -2z m8990 -30 c26 -18 52 -65 52 -94 0 -30 -45 -45 -95 -30 -44 13 -115
57 -115 72 0 5 13 23 29 39 34 33 91 40 129 13z m-10853 -120 c56 -26 82 -106
49 -152 -29 -42 -109 -19 -138 42 -22 46 -20 82 4 106 24 24 41 25 85 4z m801
-103 c130 -59 168 -256 68 -354 -40 -41 -78 -58 -139 -64 -206 -21 -322 200
-186 358 64 75 169 100 257 60z m-432 -122 c30 -23 32 -38 12 -78 -18 -34 -54
-51 -109 -51 -72 0 -89 43 -40 100 44 53 93 63 137 29z m10420 -205 c9 -24 7
-124 -3 -124 -27 0 -70 25 -80 46 -15 33 -14 81 2 87 28 12 75 7 81 -9z m-344
-9 c46 -24 47 -49 4 -112 l-38 -55 -61 4 c-106 9 -163 56 -137 113 25 55 165
85 232 50z m-1260 -75 c250 -23 456 -72 525 -124 179 -137 177 -509 -4 -685
-115 -112 -238 -115 -871 -26 -506 72 -620 100 -737 178 -51 33 -73 72 -73
127 0 85 87 213 231 341 147 132 221 171 351 188 93 12 445 13 578 1z m-6575
-234 c96 -27 173 -68 272 -144 188 -146 263 -239 263 -326 0 -137 -145 -206
-655 -310 -121 -25 -303 -64 -405 -86 -153 -34 -210 -42 -330 -47 -133 -5
-150 -3 -204 17 -74 28 -125 74 -165 149 -63 119 -93 314 -63 418 32 108 137
202 280 247 81 25 314 68 497 91 148 18 429 13 510 -9z m-2174 -17 c26 -26 18
-74 -17 -106 -31 -28 -60 -29 -74 -4 -23 44 -6 105 33 121 32 13 35 12 58 -11z
m476 6 c33 -14 35 -17 29 -48 -4 -17 -22 -47 -41 -66 -28 -29 -42 -35 -89 -39
-93 -8 -156 35 -156 104 0 19 1 34 3 34 1 0 20 7 42 15 53 19 166 19 212 0z
m9397 -109 c53 -22 79 -63 74 -117 -8 -80 -69 -136 -173 -159 -90 -20 -204 14
-213 64 -15 73 44 171 122 207 49 22 143 25 190 5z m341 -134 c-8 -44 -84
-122 -120 -122 -51 0 -25 89 52 171 l48 51 13 -33 c8 -19 11 -46 7 -67z
m-9577 -184 c61 -29 97 -80 97 -139 0 -78 -57 -119 -167 -119 -115 0 -208 66
-208 148 0 117 142 173 278 110z m-507 -77 c76 -49 109 -98 109 -162 0 -32 -2
-32 -66 -9 -33 13 -72 67 -89 122 -26 89 -22 93 46 49z m7549 -76 c52 -9 176
-31 275 -51 167 -33 205 -36 510 -49 412 -18 491 -30 618 -97 153 -82 233
-264 198 -450 -24 -124 -125 -285 -225 -356 -68 -49 -119 -64 -216 -64 -91 -1
-162 14 -390 82 -170 50 -339 85 -505 105 -258 30 -357 20 -915 -90 -581 -114
-622 -120 -910 -120 -221 0 -255 2 -350 23 -58 13 -140 38 -183 54 -62 25 -75
33 -66 45 18 21 123 68 277 123 259 93 310 122 645 362 462 331 653 439 857
482 87 19 264 19 380 1z m1945 -22 c107 -55 120 -141 28 -180 -100 -41 -219
18 -243 120 -6 30 -4 42 13 63 19 25 24 26 91 22 44 -3 86 -13 111 -25z m425
-94 c0 -32 -6 -47 -30 -70 -39 -40 -83 -38 -88 3 -4 36 12 65 51 88 51 32 67
27 67 -21z m-7003 -35 c131 -27 314 -95 565 -210 160 -73 250 -125 483 -279
343 -228 502 -300 728 -330 48 -6 48 -7 31 -26 -31 -34 -174 -98 -278 -124
-56 -14 -163 -31 -242 -37 -226 -19 -437 -2 -1104 89 -166 22 -233 26 -445 27
-235 0 -257 -1 -376 -27 -124 -26 -276 -73 -569 -176 -233 -81 -337 -85 -476
-16 -128 63 -244 216 -274 362 -19 92 -9 227 22 295 34 74 104 148 176 186
110 59 228 80 557 102 270 18 340 30 595 102 80 22 183 49 230 59 108 22 276
24 377 3z m-2143 -176 c12 -101 9 -115 -26 -136 -56 -35 -122 -47 -181 -33
-29 7 -63 21 -76 32 l-25 20 19 36 c42 78 136 131 236 132 l46 1 7 -52z m-565
-79 c36 -13 61 -53 61 -99 0 -25 -4 -30 -23 -30 -12 0 -33 7 -46 16 -22 16
-60 86 -61 112 0 15 27 16 69 1z m9466 -173 c67 -29 94 -116 57 -185 -24 -45
-74 -71 -135 -71 -177 0 -202 198 -32 258 42 15 70 14 110 -2z m-9102 -310
c18 -7 47 -30 66 -51 29 -33 33 -43 28 -78 -14 -105 -155 -156 -246 -89 -80
58 -77 189 4 223 32 12 113 10 148 -5z m6035 -443 c433 -2 780 -8 777 -13 -10
-16 -309 -78 -540 -112 -57 -8 -183 -13 -345 -13 -219 1 -271 4 -371 23 -140
26 -222 52 -314 97 -65 32 -67 34 -30 29 22 -3 392 -8 823 -11z m1717 -13
c352 -40 589 -180 651 -388 23 -75 21 -129 -7 -159 -60 -64 -188 -93 -417 -93
-191 0 -717 42 -819 65 -130 29 -202 89 -283 233 -66 117 -135 217 -158 228
-13 7 -19 14 -14 18 31 19 436 87 592 99 103 8 371 6 455 -3z m-3965 -13 c0
-71 -336 -180 -634 -207 -158 -14 -451 -12 -579 5 -183 24 -387 69 -387 85 0
4 105 10 233 14 789 23 1043 42 1242 95 87 23 125 25 125 8z m1515 -74 c481
-165 494 -166 840 -108 182 30 238 36 330 33 101 -3 116 -6 177 -36 106 -52
205 -161 296 -324 18 -32 77 -158 133 -280 118 -261 141 -304 224 -418 75
-101 105 -150 105 -169 0 -11 -28 -13 -162 -8 -313 11 -612 103 -1043 318
-180 91 -489 263 -620 347 -346 221 -568 472 -568 642 0 31 3 62 7 68 12 20
79 4 281 -65z m-1325 22 c10 -12 7 -33 -14 -106 -51 -178 -130 -302 -293 -460
-158 -153 -347 -288 -701 -500 -497 -298 -808 -420 -1140 -450 -72 -6 -135
-10 -141 -8 -6 2 9 29 35 59 56 68 147 252 210 425 103 284 158 424 202 508
158 309 313 378 707 313 347 -58 388 -51 800 122 181 76 276 110 306 111 9 1
22 -6 29 -14z m-1976 -130 c125 -13 206 -25 288 -41 l27 -5 -40 -36 c-27 -25
-57 -73 -101 -162 -84 -172 -121 -226 -182 -266 -139 -91 -500 -149 -931 -150
-258 0 -328 9 -387 49 l-33 22 1 85 c0 71 4 93 29 144 86 182 335 310 695 360
131 18 465 18 634 0z m3237 -391 c237 -190 542 -396 866 -584 l141 -82 42
-122 c119 -347 243 -612 422 -901 187 -303 213 -371 206 -553 -7 -191 -40
-228 -192 -220 -132 6 -252 88 -412 279 -99 120 -185 242 -381 544 -93 143
-255 380 -360 527 -440 612 -573 849 -672 1191 -45 153 -52 206 -34 234 15 22
16 22 131 -95 65 -65 174 -163 243 -218z m-1090 305 c20 -38 -15 -277 -66
-453 -72 -248 -158 -418 -455 -896 -97 -157 -246 -404 -330 -550 -292 -502
-475 -783 -574 -878 -91 -87 -172 -125 -274 -125 -42 0 -86 3 -98 7 -29 9 -73
95 -84 164 -13 75 1 188 35 290 15 42 79 183 144 312 184 368 276 602 346 880
32 126 37 137 73 170 22 19 160 122 308 227 519 372 738 568 904 813 22 33 45
60 50 60 5 0 14 -9 21 -21z m4735 -45 c83 -40 154 -164 154 -271 l0 -55 -32 6
c-78 15 -175 75 -247 152 -39 42 -71 84 -71 94 0 25 38 70 74 86 35 16 71 12
122 -12z m-4135 -136 c18 -35 99 -184 182 -333 321 -576 419 -844 442 -1210 3
-49 8 -118 11 -152 2 -35 1 -63 -3 -63 -4 0 -25 30 -45 68 -20 37 -93 164
-163 282 -334 568 -475 944 -475 1270 0 100 8 200 16 200 2 0 18 -28 35 -62z
m-409 -137 c10 -118 9 -159 -5 -272 -30 -248 -102 -449 -327 -924 -149 -313
-200 -429 -200 -451 0 -8 -4 -14 -9 -14 -13 0 -31 164 -31 286 1 195 39 394
120 614 42 114 72 183 233 535 52 116 109 250 126 299 18 50 37 96 43 104 22
26 38 -34 50 -177z m-4024 -2 c27 -10 29 -43 7 -116 -22 -74 -76 -124 -198
-184 l-102 -50 -3 46 c-9 140 77 290 181 315 33 8 74 4 115 -11z m6949 -64
c86 -23 129 -27 383 -35 518 -18 623 -44 806 -199 84 -70 155 -161 197 -250
40 -84 49 -197 22 -268 -25 -65 -75 -116 -143 -146 -48 -22 -80 -28 -173 -33
-105 -6 -124 -4 -239 24 -502 122 -808 359 -966 747 -50 121 -48 184 3 185 7
0 56 -11 110 -25z m1591 -138 c32 -34 52 -90 52 -146 0 -63 -17 -81 -76 -81
-39 0 -46 3 -55 28 -16 41 -7 163 14 195 21 33 37 34 65 4z m-6942 -86 c-13
-148 -51 -251 -140 -385 -59 -88 -196 -230 -290 -300 -310 -230 -712 -328
-918 -225 -202 102 -208 351 -13 577 127 147 234 213 415 256 58 14 245 46
417 71 171 25 340 54 375 64 81 25 97 27 132 22 l29 -4 -7 -76z m7241 13 c35
-54 11 -164 -37 -164 -35 0 -54 43 -46 111 8 79 20 103 46 89 11 -6 27 -22 37
-36z m-8872 -229 c10 -22 21 -66 23 -98 4 -50 1 -61 -19 -83 -31 -33 -81 -33
-108 1 -42 55 -35 138 19 195 37 40 60 36 85 -15z m8588 -46 c37 -28 54 -88
36 -125 -16 -33 -59 -60 -82 -51 -14 5 -17 21 -17 86 0 116 11 132 63 90z
m-8903 -14 c34 -37 41 -134 11 -164 -24 -24 -44 -19 -60 15 -20 45 -10 174 14
174 6 0 22 -11 35 -25z m9224 -38 c8 -12 8 -22 0 -34 -12 -19 -58 -34 -80 -26
-21 8 -17 46 7 77 19 24 23 26 42 13 12 -7 26 -21 31 -30z m-2646 -173 c724
-286 1166 -596 1302 -914 19 -43 24 -74 24 -140 1 -76 -2 -91 -29 -139 -56
-102 -169 -175 -317 -205 -208 -43 -376 4 -514 141 -118 119 -295 408 -473
775 -152 313 -219 499 -191 533 7 8 16 15 21 15 5 0 85 -30 177 -66z m-6271
-71 c17 -41 14 -136 -5 -155 -8 -8 -23 -3 -56 16 -46 27 -63 55 -49 79 16 27
78 97 86 97 4 0 15 -17 24 -37z m2473 -24 c0 -66 -39 -236 -77 -339 -36 -95
-230 -514 -344 -743 -71 -141 -144 -251 -201 -303 -158 -142 -506 -152 -713
-19 -99 63 -141 147 -132 265 22 294 395 643 1077 1010 168 91 338 169 368
170 19 0 22 -5 22 -41z m6074 5 c9 -23 -19 -80 -49 -100 -32 -21 -55 -11 -70
31 -8 24 -6 30 23 56 36 32 86 39 96 13z m-1209 -23 c283 -48 497 -124 656
-232 102 -69 158 -154 159 -240 0 -105 -76 -242 -159 -286 -116 -61 -230 -9
-534 246 -257 214 -432 339 -640 456 -59 33 -107 63 -107 67 0 13 59 16 280
13 170 -2 254 -8 345 -24z m-7633 2 c22 -20 24 -59 2 -67 -20 -8 -68 -8 -88 0
-21 8 -20 43 1 66 20 22 61 23 85 1z m9136 -15 c14 -14 16 -87 2 -122 -22 -58
-99 -72 -122 -21 -15 34 -4 67 42 114 42 43 58 49 78 29z m-3690 -95 c33 -54
120 -181 193 -283 73 -102 192 -268 266 -370 298 -416 443 -712 443 -909 0
-207 -184 -245 -356 -73 -227 227 -503 885 -595 1417 -25 146 -36 315 -21 315
5 0 37 -44 70 -97z m-1678 -161 c-16 -260 -41 -424 -100 -667 -120 -490 -312
-851 -511 -960 -45 -25 -65 -29 -125 -29 -80 0 -99 9 -121 61 -40 98 21 348
147 597 36 72 174 313 306 536 132 223 269 455 304 515 34 61 70 118 78 128
15 17 16 17 24 -3 4 -12 4 -92 -2 -178z m-1595 120 c-6 -5 -77 -48 -160 -97
-300 -176 -338 -206 -600 -470 -269 -271 -301 -295 -407 -295 -32 0 -74 6 -92
14 -50 21 -114 83 -144 140 -23 44 -27 63 -27 141 0 73 4 97 22 130 106 196
423 338 918 410 181 26 509 44 490 27z m-1771 -113 c57 -45 55 -99 -6 -99 -53
0 -126 97 -85 113 28 12 66 6 91 -14z m-314 -65 c49 -42 72 -99 52 -131 -4 -6
-30 -15 -58 -18 l-51 -7 -12 45 c-21 84 -11 137 25 137 7 0 26 -12 44 -26z
m8690 -60 c0 -71 -12 -94 -50 -94 -28 0 -30 2 -30 40 0 65 25 101 73 109 4 0
7 -24 7 -55z m309 -19 c17 -20 31 -40 31 -45 0 -4 3 -15 6 -23 8 -23 -31 -57
-65 -57 -38 0 -61 32 -61 83 0 82 38 100 89 42z m-8654 -211 c23 -9 57 -81 53
-112 -4 -37 -40 -41 -73 -8 -27 28 -35 92 -13 114 14 14 12 14 33 6z m-281
-50 c31 -12 38 -41 24 -99 l-13 -55 -54 0 -54 0 6 45 c14 96 40 128 91 109z
m8544 -129 c3 -49 -26 -101 -65 -116 -64 -24 -65 54 -1 127 40 45 62 41 66
-11z m235 -37 c53 -72 16 -286 -46 -262 -24 9 -47 56 -47 94 0 32 28 179 37
193 9 15 35 3 56 -25z m-8366 -210 c54 -58 69 -109 36 -126 -44 -23 -88 23
-99 106 -6 47 -5 52 13 52 10 0 33 -15 50 -32z m7783 -45 c0 -16 3 -38 6 -50
4 -15 1 -23 -13 -27 -26 -8 -102 -11 -109 -3 -13 12 83 107 108 107 5 0 8 -12
8 -27z m-8038 -4 c34 -18 58 -86 57 -164 -1 -91 -10 -119 -36 -123 -37 -6 -66
49 -71 137 -4 68 10 161 24 161 3 0 14 -5 26 -11z m8363 -149 c32 -30 26 -54
-25 -101 -85 -78 -224 -78 -205 0 11 43 39 85 76 109 44 31 117 27 154 -8z
m-7728 -106 c41 -31 42 -49 2 -69 -24 -13 -33 -14 -45 -4 -22 18 -44 64 -44
93 0 24 2 25 27 15 16 -6 43 -22 60 -35z m7134 15 c18 -18 19 -23 6 -42 -29
-45 -63 -60 -143 -65 l-77 -5 7 29 c10 39 33 63 81 85 54 25 100 24 126 -2z
m-7383 -153 c37 -20 89 -75 102 -110 15 -42 -5 -60 -68 -60 -97 0 -201 66
-187 118 17 57 93 83 153 52z m6937 -20 c38 -16 55 -42 55 -84 0 -42 -45 -78
-107 -87 -96 -13 -151 37 -130 118 6 20 20 34 50 47 50 23 86 25 132 6z m633
-12 c16 -11 22 -25 22 -50 0 -67 -75 -114 -184 -114 -40 0 -47 3 -42 16 3 9 6
24 6 34 0 28 59 90 105 111 49 23 64 23 93 3z m-6963 -40 c35 -16 62 -63 51
-89 -8 -23 -116 -20 -164 4 -36 18 -62 55 -62 86 0 21 130 20 175 -1z m5971
-75 c23 -19 16 -40 -26 -80 -46 -44 -126 -72 -232 -84 -65 -6 -68 -6 -68 15 0
47 59 118 119 142 69 28 177 32 207 7z m-5534 -59 c72 -20 91 -91 37 -141 -26
-25 -39 -29 -85 -29 -156 0 -196 116 -57 165 47 17 58 18 105 5z m5004 -59
c42 -19 87 -66 81 -85 -2 -6 -26 -23 -53 -38 -113 -63 -214 -40 -214 47 0 39
17 65 53 80 44 19 84 18 133 -4z m-5608 -26 c34 -29 55 -73 50 -107 -3 -20 -9
-23 -50 -26 -53 -3 -99 13 -145 52 -40 34 -42 58 -7 85 39 31 113 29 152 -4z
m6690 3 c4 -23 -63 -95 -101 -107 -18 -5 -49 -13 -69 -17 -37 -6 -38 -5 -38
23 0 29 21 68 50 90 42 34 152 42 158 11z m-5631 -30 c45 -21 103 -79 103
-103 0 -7 3 -20 6 -29 5 -14 -4 -16 -67 -16 -45 1 -95 8 -127 19 -60 21 -152
80 -152 98 0 18 46 45 88 53 49 9 98 1 149 -22z m478 -81 c8 -13 18 -44 21
-69 9 -64 -16 -88 -88 -87 -61 0 -136 26 -152 51 -17 28 14 69 74 101 68 35
123 36 145 4z m4651 -21 c17 -14 18 -17 4 -42 -27 -49 -63 -67 -130 -67 -78 0
-103 19 -80 61 9 15 31 35 50 44 43 22 129 23 156 4z m-5753 -70 c44 -18 77
-57 80 -92 2 -26 -2 -29 -29 -32 -30 -3 -105 25 -134 50 -22 18 -60 69 -60 79
0 14 107 10 143 -5z m4982 -21 c29 -15 62 -61 51 -72 -2 -3 -50 2 -105 10
-102 15 -151 35 -151 62 0 22 159 21 205 0z m335 -21 c47 -19 50 -33 13 -74
-20 -22 -40 -33 -69 -37 l-42 -5 -21 57 c-12 31 -19 61 -16 66 10 15 91 10
135 -7z m-4756 -60 c13 -5 16 -17 14 -58 -3 -49 -4 -51 -35 -54 -99 -10 -217
80 -155 118 17 11 143 7 176 -6z m804 -30 c-5 -29 -51 -53 -128 -68 -41 -9
-85 -18 -96 -21 -15 -5 -23 -1 -28 11 -21 56 49 89 197 93 49 1 58 -2 55 -15z
m-418 -64 c0 -41 -23 -84 -53 -97 -34 -16 -101 21 -105 59 -4 30 19 47 78 59
72 14 80 12 80 -21z"/>
</g>
</svg>
